<svg width="205" height="130" viewBox="0 0 205 130" fill="none" xmlns="http://www.w3.org/2000/svg">
<g id="Component 2">
<g id="vector">
<g id="icon elements">
<path id="book rectangle shape" d="M52.3324 66.1707L48.4599 66.264C48.2551 66.2689 48.0941 66.4791 48.1002 66.7335L48.506 83.5705C48.5122 83.8249 48.6831 84.0271 48.8879 84.0221L52.7604 83.9288C52.9652 83.9239 53.1262 83.7137 53.1201 83.4593L52.7143 66.6223C52.7082 66.3679 52.5372 66.1657 52.3324 66.1707Z" fill="#937DC2"/>
<path id="book round shape" d="M62.7073 68.0087C62.9294 68.5878 63.2182 69.1244 63.5645 69.6013C63.5971 69.6459 63.6302 69.6897 63.664 69.7327C63.7945 69.8981 63.9344 70.0516 64.0826 70.192C64.1181 70.2263 64.1548 70.2591 64.1908 70.2911C64.6212 70.6672 65.0522 70.8548 65.4481 70.8452C65.4846 70.8443 65.5205 70.8435 65.5562 70.8371L65.5952 70.8323L65.6002 70.8322C65.6229 70.8316 65.6448 70.8248 65.6673 70.8196C65.678 70.8193 65.688 70.8144 65.6986 70.8118L65.738 70.8015L65.7699 70.7913L65.8081 70.7794L65.8336 70.7686L65.8773 70.7519L65.9035 70.7396C65.9172 70.733 65.9315 70.7272 65.9452 70.7198L65.9564 70.7133C65.975 70.7042 65.9931 70.6944 66.0117 70.683C66.0446 70.6634 66.0768 70.6423 66.1084 70.6204L66.1183 70.6124C66.1462 70.5913 66.1734 70.5703 66.1999 70.5478C66.2591 70.4969 66.3148 70.4401 66.3665 70.3779C66.3703 70.3778 66.3732 70.3692 66.3763 70.3652C66.4522 70.2722 66.5198 70.1694 66.578 70.0583L66.5882 70.0369C66.605 70.0037 66.6218 69.9704 66.6374 69.9356C66.6396 69.9308 66.6416 69.9258 66.6433 69.9206C66.66 69.8826 66.6761 69.8416 66.6909 69.8052C66.6951 69.795 66.698 69.7847 66.7015 69.7752C66.7145 69.7397 66.7275 69.7042 66.7392 69.6671C66.7457 69.6474 66.7508 69.6262 66.7567 69.6057C66.7625 69.5852 66.7736 69.5505 66.7817 69.5214L66.7954 69.4624C66.8553 69.2115 66.8913 68.9526 66.9028 68.6907C66.9446 67.8127 66.7608 66.7977 66.3848 65.8335C65.5624 63.7229 64.1106 62.5468 63.0791 63.1561C62.5506 63.4684 62.2339 64.1763 62.1874 65.1507C62.1771 65.3776 62.1807 65.6053 62.1982 65.8319C62.2621 66.5881 62.4345 67.3253 62.7073 68.0087Z" fill="#937DC2"/>
<path id="dot" d="M75.5393 62.8668C75.3762 62.8706 75.2182 62.9344 75.0853 63.0502C74.9524 63.1659 74.8505 63.3284 74.7926 63.5171C74.7347 63.7057 74.7234 63.912 74.76 64.1099C74.7967 64.3078 74.8797 64.4884 74.9986 64.6287C75.1174 64.7691 75.2668 64.8629 75.4277 64.8983C75.5886 64.9338 75.7539 64.9092 75.9026 64.8278C76.0513 64.7463 76.1767 64.6117 76.263 64.4409C76.3493 64.2701 76.3925 64.0707 76.3873 63.8682C76.3802 63.5973 76.287 63.3398 76.1281 63.1521C75.9691 62.9644 75.7574 62.8618 75.5393 62.8668Z" fill="#937DC2"/>
<path id="small star" d="M72.2263 65.4056C72.2195 65.3721 72.2041 65.3421 72.1824 65.3204C72.1607 65.2987 72.1339 65.2865 72.1062 65.2855C72.0784 65.2846 72.0513 65.295 72.029 65.3153C72.0068 65.3355 71.9906 65.3643 71.983 65.3974C71.9089 65.658 71.7916 65.8958 71.6384 66.0956C71.4853 66.2954 71.2998 66.4526 71.0938 66.5571C71.0682 66.5683 71.0462 66.5895 71.0312 66.6177C71.0162 66.6458 71.0091 66.6793 71.0108 66.7132C71.0126 66.747 71.0231 66.7794 71.0409 66.8054C71.0586 66.8313 71.0826 66.8495 71.1093 66.8572C71.3253 66.9327 71.5235 67.0732 71.6863 67.2661C71.849 67.459 71.9713 67.6984 72.0423 67.9629C72.0512 67.9945 72.068 68.0217 72.0902 68.0408C72.1125 68.0598 72.1389 68.0696 72.1657 68.0687C72.1926 68.0686 72.2185 68.0578 72.2399 68.038C72.2613 68.0182 72.277 67.9904 72.2847 67.9586C72.3466 67.693 72.4588 67.4502 72.612 67.2503C72.7651 67.0505 72.9547 66.8992 73.1652 66.8092C73.1907 66.7974 73.2124 66.7759 73.2273 66.7476C73.2421 66.7194 73.2494 66.686 73.2479 66.6521C73.2465 66.6182 73.2364 66.5857 73.2192 66.5592C73.202 66.5326 73.1786 66.5135 73.1522 66.5044C72.9338 66.4396 72.7327 66.3035 72.5699 66.1103C72.407 65.917 72.2884 65.6737 72.2263 65.4056Z" fill="#937DC2"/>
<path id="big star" d="M70.6094 59.9829C71.4734 60.3188 72.0459 60.9959 72.3598 62.0531C72.3773 62.1121 72.4091 62.1631 72.4509 62.1988C72.4926 62.2346 72.5422 62.2533 72.5926 62.2525C72.6429 62.2512 72.6914 62.2306 72.7314 62.1934C72.7715 62.1563 72.8011 62.1045 72.8163 62.0452C73.0893 60.9848 73.6297 60.2794 74.4693 59.8883C74.5168 59.8658 74.5572 59.8252 74.5848 59.7723C74.6124 59.7194 74.6258 59.6568 74.623 59.5935C74.6202 59.5302 74.6014 59.4694 74.5693 59.4198C74.5372 59.3701 74.4934 59.3342 74.4442 59.317C73.562 59.0136 72.9928 58.3403 72.7054 57.2598C72.6897 57.2004 72.6597 57.1483 72.6194 57.1108C72.5791 57.0732 72.5305 57.0521 72.4803 57.0502C72.4302 57.0483 72.381 57.0658 72.3396 57.1003C72.2981 57.1348 72.2664 57.1845 72.2489 57.2426C72.1099 57.7316 71.8897 58.178 71.6024 58.5529C71.315 58.9279 70.967 59.2231 70.5807 59.4195C70.5355 59.4439 70.4977 59.485 70.4721 59.5372C70.4465 59.5894 70.4345 59.6502 70.4376 59.7115C70.4408 59.7728 70.4589 59.8316 70.4896 59.8801C70.5203 59.9286 70.5621 59.9645 70.6094 59.9829Z" fill="#937DC2"/>
<path id="books shape" d="M75.0289 86.4481L71.162 86.5413L74.2385 84.724C74.5133 84.5606 74.7236 84.2679 74.8235 83.9101C74.9234 83.5523 74.9046 83.1584 74.7713 82.8147L71.7353 75.0242L70.4322 71.6789L66.0937 60.5416C66.0274 60.3714 65.9349 60.2187 65.8215 60.0923C65.708 59.9659 65.5759 59.8682 65.4325 59.8049C65.2892 59.7416 65.1375 59.7139 64.9862 59.7233C64.8349 59.7327 64.6868 59.7791 64.5505 59.8598L60.0718 62.505C59.9271 62.59 59.7989 62.7122 59.6956 62.8637L57.9041 54.5442C57.865 54.3617 57.7975 54.1902 57.7052 54.0396C57.613 53.8889 57.4979 53.762 57.3666 53.6661C57.2353 53.5702 57.0903 53.5072 56.94 53.4807C56.7896 53.4543 56.6369 53.4649 56.4904 53.5118L52.8777 54.6669C52.5823 54.762 52.3306 54.9993 52.1777 55.3265C52.0249 55.6538 51.9835 56.0443 52.0626 56.4124L53.3691 62.4834C53.2432 62.4305 53.1111 62.4048 52.9787 62.4076L47.6344 62.5364C47.4934 62.5402 47.3544 62.5761 47.2244 62.6425L47.1182 58.2364C47.1081 57.8323 46.9694 57.4481 46.7325 57.1679C46.4956 56.8877 46.1799 56.7346 45.8546 56.742L41.0076 56.8588C40.8463 56.8625 40.6875 56.9056 40.5403 56.9857C40.3931 57.0657 40.2603 57.1812 40.1496 57.3255C40.0388 57.4697 39.9523 57.64 39.8948 57.8265C39.8374 58.013 39.8103 58.2121 39.8149 58.4124L40.4908 86.452C40.4977 86.747 40.574 87.034 40.7103 87.2776L39.9883 87.295C39.707 87.3102 39.4427 87.4615 39.252 87.7166C39.0613 87.9717 38.9593 88.3103 38.9677 88.6602C38.9762 89.01 39.0944 89.3433 39.2971 89.5889C39.4999 89.8345 39.7711 89.9729 40.0529 89.9746L75.0935 89.13C75.3749 89.1148 75.6391 88.9635 75.8298 88.7084C76.0205 88.4533 76.1226 88.1147 76.1141 87.7649C76.1057 87.415 75.9875 87.0817 75.7847 86.8361C75.5819 86.5905 75.3107 86.4521 75.029 86.4504L75.0289 86.4481ZM64.3999 84.7084L63.8071 81.9586L63.2815 79.5185L60.6362 67.2349L63.8776 75.554L65.1807 78.8985L68.1871 86.6153L62.6716 86.7482L63.5836 86.4571C63.8794 86.3616 64.1315 86.1239 64.2845 85.7961C64.4375 85.4683 64.479 85.0772 64.3999 84.7084ZM71.2302 75.8344L74.1037 83.2087C74.1516 83.3314 74.1586 83.4722 74.123 83.6002C74.0875 83.7283 74.0124 83.833 73.9142 83.8915L69.4355 86.5383C69.3369 86.5962 69.2235 86.6029 69.12 86.557C69.0165 86.5111 68.9315 86.4163 68.8835 86.2934L66.01 78.9176L66.0721 78.8793L71.2302 75.8344ZM60.1864 63.628C60.204 63.5646 60.2316 63.5063 60.2676 63.4564C60.3036 63.4065 60.3473 63.3661 60.3961 63.3374L64.8754 60.6914C64.9278 60.6606 64.9848 60.6438 65.043 60.642C65.0929 60.6407 65.1427 60.6509 65.1899 60.6721C65.2413 60.6945 65.2887 60.7294 65.3293 60.7746C65.37 60.8198 65.4031 60.8745 65.4267 60.9355L69.6034 71.6559L64.9421 74.4095L64.3832 74.7406L60.2041 64.0235C60.1801 63.9621 60.1661 63.8955 60.163 63.8276C60.16 63.7596 60.1679 63.6918 60.1864 63.628ZM60.3309 80.9361L62.6609 80.1899L62.995 81.7411L60.0392 82.6862L58.5867 83.1523L58.2533 81.6027L60.3309 80.9361ZM53.8388 56.7006L56.472 55.8586C56.5192 55.8432 56.5685 55.8395 56.6171 55.8477C56.6656 55.856 56.7125 55.8761 56.7549 55.9069C56.7974 55.9376 56.8346 55.9784 56.8645 56.0269C56.8944 56.0754 56.9164 56.1307 56.9291 56.1895L58.1346 61.7834C58.1473 61.8419 58.1505 61.9029 58.1442 61.9628C58.1378 62.0227 58.122 62.0803 58.0976 62.1323C58.0733 62.1843 58.0408 62.2298 58.0021 62.266C57.9635 62.3023 57.9193 62.3287 57.8723 62.3436L55.2391 63.1894C55.2114 63.1981 55.183 63.203 55.1544 63.204C55.0709 63.2061 54.9889 63.173 54.9219 63.1101C54.8548 63.0473 54.8067 62.9583 54.7852 62.8577L53.5796 57.2638C53.5666 57.2053 53.5629 57.1443 53.5689 57.0843C53.5749 57.0243 53.5903 56.9665 53.6144 56.9141C53.6385 56.8618 53.6707 56.816 53.7092 56.7793C53.7477 56.7427 53.7917 56.7159 53.8388 56.7006ZM47.7914 86.2737L47.254 63.9773C47.2509 63.8414 47.2913 63.7102 47.3662 63.6122C47.4412 63.5142 47.5446 63.4575 47.654 63.4544L53.0008 63.3255C53.1102 63.3231 53.2165 63.3747 53.2962 63.469C53.3759 63.5633 53.4226 63.6925 53.4261 63.8285L53.9657 86.2156C53.9688 86.3515 53.9283 86.4828 53.8532 86.5807C53.7781 86.6786 53.6745 86.7351 53.5651 86.7377L48.2208 86.8665C48.1115 86.869 48.0054 86.8175 47.9258 86.7233C47.8462 86.6292 47.7996 86.5001 47.7961 86.3643L47.7914 86.2737ZM40.6901 63.9399L46.5078 63.7997L46.5313 64.7739L40.7136 64.9142L40.6901 63.9399ZM40.7358 65.8345L46.5534 65.6943L46.6057 67.8602L40.788 68.0004L40.7358 65.8345ZM41.0706 79.7268L46.8883 79.5866L46.9117 80.5601L41.0941 80.7003L41.0706 79.7268ZM54.7053 86.1978L54.2302 66.488L57.4374 81.3845L57.963 83.8238L58.5552 86.5752C58.5747 86.6667 58.6016 86.7557 58.6353 86.8408L54.5569 86.9391C54.6608 86.7145 54.7126 86.458 54.7066 86.1978L54.7053 86.1978Z" fill="#937DC2"/>
</g>
</g>
<path id="Vector" d="M86.6871 99H26.3129C25.5775 98.996 24.8685 98.6835 24.3184 98.1209C23.7684 97.5583 23.4149 96.7841 23.3241 95.9431L18.019 40.8319C17.9718 40.3518 18.0128 39.8655 18.1394 39.4048C18.2659 38.9441 18.4752 38.5192 18.7536 38.1578C19.0319 37.7964 19.3732 37.5065 19.7551 37.3071C20.137 37.1076 20.5511 37.003 20.9704 37H92.0296C92.4489 37.003 92.863 37.1076 93.2449 37.3071C93.6268 37.5065 93.9681 37.7964 94.2464 38.1578C94.5248 38.5192 94.7341 38.9441 94.8606 39.4048C94.9872 39.8655 95.0282 40.3518 94.981 40.8319L89.6759 95.9431C89.5851 96.7841 89.2316 97.5583 88.6816 98.1209C88.1315 98.6835 87.4225 98.996 86.6871 99V99Z" stroke="#191C1F" stroke-width="2" stroke-linecap="round" stroke-linejoin="round"/>
<path id="Vector_2" d="M38 36C38 30.6957 39.8964 25.6086 43.2721 21.8579C46.6477 18.1071 51.2261 16 56 16C60.7739 16 65.3523 18.1071 68.7279 21.8579C72.1036 25.6086 74 30.6957 74 36" stroke="black" stroke-width="2" stroke-linecap="round" stroke-linejoin="round"/>
<path id="Book BaZaar" d="M127.114 66V48.5455H133.216C134.432 48.5455 135.435 48.7557 136.224 49.1761C137.014 49.5909 137.602 50.1506 137.989 50.8551C138.375 51.554 138.568 52.3295 138.568 53.1818C138.568 53.9318 138.435 54.5511 138.168 55.0398C137.906 55.5284 137.56 55.9148 137.128 56.1989C136.702 56.483 136.239 56.6932 135.739 56.8295V57C136.273 57.0341 136.81 57.2216 137.349 57.5625C137.889 57.9034 138.341 58.392 138.705 59.0284C139.068 59.6648 139.25 60.4432 139.25 61.3636C139.25 62.2386 139.051 63.0256 138.653 63.7244C138.256 64.4233 137.628 64.9773 136.77 65.3864C135.912 65.7955 134.795 66 133.42 66H127.114ZM129.227 64.125H133.42C134.801 64.125 135.781 63.858 136.361 63.3239C136.946 62.7841 137.239 62.1307 137.239 61.3636C137.239 60.7727 137.088 60.2273 136.787 59.7273C136.486 59.2216 136.057 58.8182 135.5 58.517C134.943 58.2102 134.284 58.0568 133.523 58.0568H129.227V64.125ZM129.227 56.2159H133.148C133.784 56.2159 134.358 56.0909 134.869 55.8409C135.386 55.5909 135.795 55.2386 136.097 54.7841C136.403 54.3295 136.557 53.7955 136.557 53.1818C136.557 52.4148 136.29 51.7642 135.756 51.2301C135.222 50.6903 134.375 50.4205 133.216 50.4205H129.227V56.2159ZM147.768 66.2727C146.587 66.2727 145.55 65.9915 144.658 65.429C143.771 64.8665 143.078 64.0795 142.578 63.0682C142.084 62.0568 141.837 60.875 141.837 59.5227C141.837 58.1591 142.084 56.9687 142.578 55.9517C143.078 54.9347 143.771 54.1449 144.658 53.5824C145.55 53.0199 146.587 52.7386 147.768 52.7386C148.95 52.7386 149.984 53.0199 150.871 53.5824C151.763 54.1449 152.456 54.9347 152.95 55.9517C153.45 56.9687 153.7 58.1591 153.7 59.5227C153.7 60.875 153.45 62.0568 152.95 63.0682C152.456 64.0795 151.763 64.8665 150.871 65.429C149.984 65.9915 148.95 66.2727 147.768 66.2727ZM147.768 64.4659C148.666 64.4659 149.405 64.2358 149.984 63.7756C150.564 63.3153 150.993 62.7102 151.271 61.9602C151.55 61.2102 151.689 60.3977 151.689 59.5227C151.689 58.6477 151.55 57.8324 151.271 57.0767C150.993 56.321 150.564 55.7102 149.984 55.2443C149.405 54.7784 148.666 54.5455 147.768 54.5455C146.871 54.5455 146.132 54.7784 145.553 55.2443C144.973 55.7102 144.544 56.321 144.266 57.0767C143.987 57.8324 143.848 58.6477 143.848 59.5227C143.848 60.3977 143.987 61.2102 144.266 61.9602C144.544 62.7102 144.973 63.3153 145.553 63.7756C146.132 64.2358 146.871 64.4659 147.768 64.4659ZM162.089 66.2727C160.907 66.2727 159.87 65.9915 158.978 65.429C158.092 64.8665 157.398 64.0795 156.898 63.0682C156.404 62.0568 156.157 60.875 156.157 59.5227C156.157 58.1591 156.404 56.9687 156.898 55.9517C157.398 54.9347 158.092 54.1449 158.978 53.5824C159.87 53.0199 160.907 52.7386 162.089 52.7386C163.271 52.7386 164.305 53.0199 165.191 53.5824C166.083 54.1449 166.776 54.9347 167.271 55.9517C167.771 56.9687 168.021 58.1591 168.021 59.5227C168.021 60.875 167.771 62.0568 167.271 63.0682C166.776 64.0795 166.083 64.8665 165.191 65.429C164.305 65.9915 163.271 66.2727 162.089 66.2727ZM162.089 64.4659C162.987 64.4659 163.725 64.2358 164.305 63.7756C164.884 63.3153 165.313 62.7102 165.592 61.9602C165.87 61.2102 166.009 60.3977 166.009 59.5227C166.009 58.6477 165.87 57.8324 165.592 57.0767C165.313 56.321 164.884 55.7102 164.305 55.2443C163.725 54.7784 162.987 54.5455 162.089 54.5455C161.191 54.5455 160.452 54.7784 159.873 55.2443C159.293 55.7102 158.864 56.321 158.586 57.0767C158.308 57.8324 158.168 58.6477 158.168 59.5227C158.168 60.3977 158.308 61.2102 158.586 61.9602C158.864 62.7102 159.293 63.3153 159.873 63.7756C160.452 64.2358 161.191 64.4659 162.089 64.4659ZM172.966 61.2273L172.932 58.7386H173.341L179.068 52.9091H181.557L175.455 59.0795H175.284L172.966 61.2273ZM171.091 66V48.5455H173.102V66H171.091ZM179.409 66L174.295 59.5227L175.727 58.125L181.966 66H179.409ZM127.114 95V77.5455H133.216C134.432 77.5455 135.435 77.7557 136.224 78.1761C137.014 78.5909 137.602 79.1506 137.989 79.8551C138.375 80.554 138.568 81.3295 138.568 82.1818C138.568 82.9318 138.435 83.5511 138.168 84.0398C137.906 84.5284 137.56 84.9148 137.128 85.1989C136.702 85.483 136.239 85.6932 135.739 85.8295V86C136.273 86.0341 136.81 86.2216 137.349 86.5625C137.889 86.9034 138.341 87.392 138.705 88.0284C139.068 88.6648 139.25 89.4432 139.25 90.3636C139.25 91.2386 139.051 92.0256 138.653 92.7244C138.256 93.4233 137.628 93.9773 136.77 94.3864C135.912 94.7955 134.795 95 133.42 95H127.114ZM129.227 93.125H133.42C134.801 93.125 135.781 92.858 136.361 92.3239C136.946 91.7841 137.239 91.1307 137.239 90.3636C137.239 89.7727 137.088 89.2273 136.787 88.7273C136.486 88.2216 136.057 87.8182 135.5 87.517C134.943 87.2102 134.284 87.0568 133.523 87.0568H129.227V93.125ZM129.227 85.2159H133.148C133.784 85.2159 134.358 85.0909 134.869 84.8409C135.386 84.5909 135.795 84.2386 136.097 83.7841C136.403 83.3295 136.557 82.7955 136.557 82.1818C136.557 81.4148 136.29 80.7642 135.756 80.2301C135.222 79.6903 134.375 79.4205 133.216 79.4205H129.227V85.2159ZM146.303 95.3068C145.473 95.3068 144.72 95.1506 144.044 94.8381C143.368 94.5199 142.831 94.0625 142.433 93.4659C142.036 92.8636 141.837 92.1364 141.837 91.2841C141.837 90.5341 141.984 89.9261 142.28 89.4602C142.575 88.9886 142.97 88.6193 143.464 88.3523C143.959 88.0852 144.504 87.8864 145.101 87.7557C145.703 87.6193 146.308 87.5114 146.916 87.4318C147.712 87.3295 148.357 87.2528 148.851 87.2017C149.351 87.1449 149.714 87.0511 149.942 86.9205C150.175 86.7898 150.291 86.5625 150.291 86.2386V86.1705C150.291 85.3295 150.061 84.6761 149.601 84.2102C149.146 83.7443 148.456 83.5114 147.53 83.5114C146.57 83.5114 145.817 83.7216 145.271 84.142C144.726 84.5625 144.342 85.0114 144.121 85.4886L142.212 84.8068C142.553 84.0114 143.007 83.392 143.575 82.9489C144.149 82.5 144.774 82.1875 145.45 82.0114C146.132 81.8295 146.803 81.7386 147.462 81.7386C147.882 81.7386 148.365 81.7898 148.911 81.892C149.462 81.9886 149.993 82.1903 150.504 82.4972C151.021 82.804 151.45 83.267 151.791 83.8864C152.132 84.5057 152.303 85.3352 152.303 86.375V95H150.291V93.2273H150.189C150.053 93.5114 149.825 93.8153 149.507 94.1392C149.189 94.4631 148.766 94.7386 148.237 94.9659C147.709 95.1932 147.064 95.3068 146.303 95.3068ZM146.609 93.5C147.405 93.5 148.075 93.3438 148.621 93.0312C149.172 92.7188 149.587 92.3153 149.865 91.821C150.149 91.3267 150.291 90.8068 150.291 90.2614V88.4205C150.206 88.5227 150.018 88.6165 149.729 88.7017C149.445 88.7812 149.115 88.8523 148.74 88.9148C148.371 88.9716 148.01 89.0227 147.658 89.0682C147.311 89.108 147.03 89.142 146.814 89.1705C146.291 89.2386 145.803 89.3494 145.348 89.5028C144.899 89.6506 144.536 89.875 144.257 90.1761C143.984 90.4716 143.848 90.875 143.848 91.3864C143.848 92.0852 144.107 92.6136 144.624 92.9716C145.146 93.3239 145.808 93.5 146.609 93.5ZM155.667 95V93.4659L165.076 79.4205H155.565V77.5455H167.599V79.0795L158.19 93.125H167.701V95H155.667ZM174.826 95.3068C173.996 95.3068 173.244 95.1506 172.567 94.8381C171.891 94.5199 171.354 94.0625 170.957 93.4659C170.559 92.8636 170.36 92.1364 170.36 91.2841C170.36 90.5341 170.508 89.9261 170.803 89.4602C171.099 88.9886 171.494 88.6193 171.988 88.3523C172.482 88.0852 173.028 87.8864 173.624 87.7557C174.227 87.6193 174.832 87.5114 175.44 87.4318C176.235 87.3295 176.88 87.2528 177.374 87.2017C177.874 87.1449 178.238 87.0511 178.465 86.9205C178.698 86.7898 178.815 86.5625 178.815 86.2386V86.1705C178.815 85.3295 178.585 84.6761 178.124 84.2102C177.67 83.7443 176.979 83.5114 176.053 83.5114C175.093 83.5114 174.34 83.7216 173.795 84.142C173.249 84.5625 172.866 85.0114 172.644 85.4886L170.735 84.8068C171.076 84.0114 171.531 83.392 172.099 82.9489C172.673 82.5 173.298 82.1875 173.974 82.0114C174.656 81.8295 175.326 81.7386 175.985 81.7386C176.406 81.7386 176.888 81.7898 177.434 81.892C177.985 81.9886 178.516 82.1903 179.028 82.4972C179.545 82.804 179.974 83.267 180.315 83.8864C180.656 84.5057 180.826 85.3352 180.826 86.375V95H178.815V93.2273H178.712C178.576 93.5114 178.349 93.8153 178.031 94.1392C177.712 94.4631 177.289 94.7386 176.761 94.9659C176.232 95.1932 175.587 95.3068 174.826 95.3068ZM175.133 93.5C175.928 93.5 176.599 93.3438 177.144 93.0312C177.695 92.7188 178.11 92.3153 178.388 91.821C178.673 91.3267 178.815 90.8068 178.815 90.2614V88.4205C178.729 88.5227 178.542 88.6165 178.252 88.7017C177.968 88.7812 177.638 88.8523 177.263 88.9148C176.894 88.9716 176.533 89.0227 176.181 89.0682C175.835 89.108 175.553 89.142 175.337 89.1705C174.815 89.2386 174.326 89.3494 173.871 89.5028C173.423 89.6506 173.059 89.875 172.781 90.1761C172.508 90.4716 172.371 90.875 172.371 91.3864C172.371 92.0852 172.63 92.6136 173.147 92.9716C173.67 93.3239 174.332 93.5 175.133 93.5ZM188.349 95.3068C187.52 95.3068 186.767 95.1506 186.091 94.8381C185.415 94.5199 184.878 94.0625 184.48 93.4659C184.082 92.8636 183.884 92.1364 183.884 91.2841C183.884 90.5341 184.031 89.9261 184.327 89.4602C184.622 88.9886 185.017 88.6193 185.511 88.3523C186.006 88.0852 186.551 87.8864 187.148 87.7557C187.75 87.6193 188.355 87.5114 188.963 87.4318C189.759 87.3295 190.403 87.2528 190.898 87.2017C191.398 87.1449 191.761 87.0511 191.989 86.9205C192.222 86.7898 192.338 86.5625 192.338 86.2386V86.1705C192.338 85.3295 192.108 84.6761 191.648 84.2102C191.193 83.7443 190.503 83.5114 189.577 83.5114C188.616 83.5114 187.864 83.7216 187.318 84.142C186.773 84.5625 186.389 85.0114 186.168 85.4886L184.259 84.8068C184.599 84.0114 185.054 83.392 185.622 82.9489C186.196 82.5 186.821 82.1875 187.497 82.0114C188.179 81.8295 188.849 81.7386 189.509 81.7386C189.929 81.7386 190.412 81.7898 190.957 81.892C191.509 81.9886 192.04 82.1903 192.551 82.4972C193.068 82.804 193.497 83.267 193.838 83.8864C194.179 84.5057 194.349 85.3352 194.349 86.375V95H192.338V93.2273H192.236C192.099 93.5114 191.872 93.8153 191.554 94.1392C191.236 94.4631 190.813 94.7386 190.284 94.9659C189.756 95.1932 189.111 95.3068 188.349 95.3068ZM188.656 93.5C189.452 93.5 190.122 93.3438 190.668 93.0312C191.219 92.7188 191.634 92.3153 191.912 91.821C192.196 91.3267 192.338 90.8068 192.338 90.2614V88.4205C192.253 88.5227 192.065 88.6165 191.776 88.7017C191.491 88.7812 191.162 88.8523 190.787 88.9148C190.418 88.9716 190.057 89.0227 189.705 89.0682C189.358 89.108 189.077 89.142 188.861 89.1705C188.338 89.2386 187.849 89.3494 187.395 89.5028C186.946 89.6506 186.582 89.875 186.304 90.1761C186.031 90.4716 185.895 90.875 185.895 91.3864C185.895 92.0852 186.153 92.6136 186.67 92.9716C187.193 93.3239 187.855 93.5 188.656 93.5ZM198.021 95V81.9091H199.964V83.8864H200.1C200.339 83.2386 200.771 82.7131 201.396 82.3097C202.021 81.9062 202.725 81.7045 203.509 81.7045C203.657 81.7045 203.842 81.7074 204.063 81.7131C204.285 81.7187 204.452 81.7273 204.566 81.7386V83.7841C204.498 83.767 204.342 83.7415 204.097 83.7074C203.859 83.6676 203.606 83.6477 203.339 83.6477C202.702 83.6477 202.134 83.7812 201.634 84.0483C201.14 84.3097 200.748 84.6733 200.458 85.1392C200.174 85.5994 200.032 86.125 200.032 86.7159V95H198.021Z" fill="#191C1F"/>
<line id="Line 1" x1="111" y1="98" x2="111" y2="37" stroke="#937DC2" stroke-width="2" stroke-linecap="round"/>
</g>
</svg>
