<svg width="40" height="35" viewBox="0 0 40 35" fill="none" xmlns="http://www.w3.org/2000/svg">
<path d="M15.2267 30.6737C15.2267 32.6647 13.6126 34.2787 11.6217 34.2787C9.63068 34.2787 8.01667 32.6647 8.01667 30.6737C8.01667 28.6827 9.63068 27.0687 11.6217 27.0687C13.6126 27.0687 15.2267 28.6827 15.2267 30.6737Z" fill="#382C2C"/>
<path d="M32.05 30.6737C32.05 32.6647 30.436 34.2787 28.445 34.2787C26.454 34.2787 24.84 32.6647 24.84 30.6737C24.84 28.6827 26.454 27.0687 28.445 27.0687C30.436 27.0687 32.05 28.6827 32.05 30.6737Z" fill="#382C2C"/>
<path d="M3.21 0.63208C1.88268 0.63208 0.806671 1.70809 0.806671 3.03541V27.0687C0.806671 28.3961 1.88268 29.4721 3.21 29.4721H5.73352C6.29022 26.7296 8.71488 24.6654 11.6217 24.6654C14.5284 24.6654 16.9531 26.7296 17.5098 29.4721H20.0333C21.3606 29.4721 22.4367 28.3961 22.4367 27.0687V3.03541C22.4367 1.70809 21.3606 0.63208 20.0333 0.63208H3.21Z" fill="#382C2C"/>
<path d="M29.6466 7.84208C28.3193 7.84208 27.2433 8.91808 27.2433 10.2454V24.7856C27.6316 24.7068 28.0335 24.6654 28.445 24.6654C31.3518 24.6654 33.7764 26.7296 34.3331 29.4721H36.8566C38.184 29.4721 39.26 28.3961 39.26 27.0687V15.0521C39.26 14.4147 39.0068 13.8034 38.5561 13.3527L33.7494 8.54599C33.2987 8.09528 32.6874 7.84208 32.05 7.84208H29.6466Z" fill="#382C2C"/>
</svg>
