<svg width="250" height="300" viewBox="0 0 114 130" fill="none" xmlns="http://www.w3.org/2000/svg">
<g id="Component 2">
<g id="vector">
<g id="icon elements">
<path id="book rectangle shape" d="M52.3324 66.1707L48.4599 66.264C48.2551 66.2689 48.0941 66.4791 48.1002 66.7335L48.506 83.5705C48.5122 83.8249 48.6831 84.0271 48.8879 84.0221L52.7604 83.9288C52.9652 83.9239 53.1262 83.7137 53.1201 83.4593L52.7143 66.6223C52.7082 66.3679 52.5372 66.1657 52.3324 66.1707Z" fill="#937DC2"/>
<path id="book round shape" d="M62.7073 68.0087C62.9294 68.5878 63.2182 69.1244 63.5645 69.6013C63.5971 69.6459 63.6302 69.6897 63.664 69.7327C63.7945 69.8981 63.9344 70.0516 64.0826 70.192C64.1181 70.2263 64.1548 70.2591 64.1908 70.2911C64.6212 70.6672 65.0522 70.8548 65.4481 70.8452C65.4846 70.8443 65.5205 70.8435 65.5562 70.8371L65.5952 70.8323L65.6002 70.8322C65.6229 70.8316 65.6448 70.8248 65.6673 70.8196C65.678 70.8193 65.688 70.8144 65.6986 70.8118L65.738 70.8015L65.7699 70.7913L65.8081 70.7794L65.8336 70.7686L65.8773 70.7519L65.9035 70.7396C65.9172 70.733 65.9315 70.7272 65.9452 70.7198L65.9564 70.7133C65.975 70.7042 65.9931 70.6944 66.0117 70.683C66.0446 70.6634 66.0768 70.6423 66.1084 70.6204L66.1183 70.6124C66.1462 70.5913 66.1734 70.5703 66.1999 70.5478C66.2591 70.4969 66.3148 70.4401 66.3665 70.3779C66.3703 70.3778 66.3732 70.3692 66.3763 70.3652C66.4522 70.2722 66.5198 70.1694 66.578 70.0583L66.5882 70.0369C66.605 70.0037 66.6218 69.9704 66.6374 69.9356C66.6396 69.9308 66.6416 69.9258 66.6433 69.9206C66.66 69.8826 66.6761 69.8416 66.6909 69.8052C66.6951 69.795 66.698 69.7847 66.7015 69.7752C66.7145 69.7397 66.7275 69.7042 66.7392 69.6671C66.7457 69.6474 66.7508 69.6262 66.7567 69.6057C66.7625 69.5852 66.7736 69.5505 66.7817 69.5214L66.7954 69.4624C66.8553 69.2115 66.8913 68.9526 66.9028 68.6907C66.9446 67.8127 66.7608 66.7977 66.3848 65.8335C65.5624 63.7229 64.1106 62.5468 63.0791 63.1561C62.5506 63.4684 62.2339 64.1763 62.1874 65.1507C62.1771 65.3776 62.1807 65.6053 62.1982 65.8319C62.2621 66.5881 62.4345 67.3253 62.7073 68.0087Z" fill="#937DC2"/>
<path id="dot" d="M75.5393 62.8668C75.3762 62.8706 75.2182 62.9344 75.0853 63.0502C74.9524 63.1659 74.8505 63.3284 74.7926 63.5171C74.7347 63.7057 74.7234 63.912 74.76 64.1099C74.7967 64.3078 74.8797 64.4884 74.9986 64.6287C75.1174 64.7691 75.2668 64.8629 75.4277 64.8983C75.5886 64.9338 75.7539 64.9092 75.9026 64.8278C76.0513 64.7463 76.1767 64.6117 76.263 64.4409C76.3493 64.2701 76.3925 64.0707 76.3873 63.8682C76.3802 63.5973 76.287 63.3398 76.1281 63.1521C75.9691 62.9644 75.7574 62.8618 75.5393 62.8668Z" fill="#937DC2"/>
<path id="small star" d="M72.2263 65.4056C72.2195 65.3721 72.2041 65.3421 72.1824 65.3204C72.1607 65.2987 72.1339 65.2865 72.1062 65.2855C72.0784 65.2846 72.0513 65.295 72.029 65.3153C72.0068 65.3355 71.9906 65.3643 71.983 65.3974C71.9089 65.658 71.7916 65.8958 71.6384 66.0956C71.4853 66.2954 71.2998 66.4526 71.0938 66.5571C71.0682 66.5683 71.0462 66.5895 71.0312 66.6177C71.0162 66.6458 71.0091 66.6793 71.0108 66.7132C71.0126 66.747 71.0231 66.7794 71.0409 66.8054C71.0586 66.8313 71.0826 66.8495 71.1093 66.8572C71.3253 66.9327 71.5235 67.0732 71.6863 67.2661C71.849 67.459 71.9713 67.6984 72.0423 67.9629C72.0512 67.9945 72.068 68.0217 72.0902 68.0408C72.1125 68.0598 72.1389 68.0696 72.1657 68.0687C72.1926 68.0686 72.2185 68.0578 72.2399 68.038C72.2613 68.0182 72.277 67.9904 72.2847 67.9586C72.3466 67.693 72.4588 67.4502 72.612 67.2503C72.7651 67.0505 72.9547 66.8992 73.1652 66.8092C73.1907 66.7974 73.2124 66.7759 73.2273 66.7476C73.2421 66.7194 73.2494 66.686 73.2479 66.6521C73.2465 66.6182 73.2364 66.5857 73.2192 66.5592C73.202 66.5326 73.1786 66.5135 73.1522 66.5044C72.9338 66.4396 72.7327 66.3035 72.5699 66.1103C72.407 65.917 72.2884 65.6737 72.2263 65.4056Z" fill="#937DC2"/>
<path id="big star" d="M70.6094 59.9829C71.4734 60.3188 72.0459 60.9959 72.3598 62.0531C72.3773 62.1121 72.4091 62.1631 72.4509 62.1988C72.4926 62.2346 72.5422 62.2533 72.5926 62.2525C72.6429 62.2512 72.6914 62.2306 72.7314 62.1934C72.7715 62.1563 72.8011 62.1045 72.8163 62.0452C73.0893 60.9848 73.6297 60.2794 74.4693 59.8883C74.5168 59.8658 74.5572 59.8252 74.5848 59.7723C74.6124 59.7194 74.6258 59.6568 74.623 59.5935C74.6202 59.5302 74.6014 59.4694 74.5693 59.4198C74.5372 59.3701 74.4934 59.3342 74.4442 59.317C73.562 59.0136 72.9928 58.3403 72.7054 57.2598C72.6897 57.2004 72.6597 57.1483 72.6194 57.1108C72.5791 57.0732 72.5305 57.0521 72.4803 57.0502C72.4302 57.0483 72.381 57.0658 72.3396 57.1003C72.2981 57.1348 72.2664 57.1845 72.2489 57.2426C72.1099 57.7316 71.8897 58.178 71.6024 58.5529C71.315 58.9279 70.967 59.2231 70.5807 59.4195C70.5355 59.4439 70.4977 59.485 70.4721 59.5372C70.4465 59.5894 70.4345 59.6502 70.4376 59.7115C70.4408 59.7728 70.4589 59.8316 70.4896 59.8801C70.5203 59.9286 70.5621 59.9645 70.6094 59.9829Z" fill="#937DC2"/>
<path id="books shape" d="M75.0289 86.4481L71.162 86.5413L74.2385 84.724C74.5133 84.5606 74.7236 84.2679 74.8235 83.9101C74.9234 83.5523 74.9046 83.1584 74.7713 82.8147L71.7353 75.0242L70.4322 71.6789L66.0937 60.5416C66.0274 60.3714 65.9349 60.2187 65.8215 60.0923C65.708 59.9659 65.5759 59.8682 65.4325 59.8049C65.2892 59.7416 65.1375 59.7139 64.9862 59.7233C64.8349 59.7327 64.6868 59.7791 64.5505 59.8598L60.0718 62.505C59.9271 62.59 59.7989 62.7122 59.6956 62.8637L57.9041 54.5442C57.865 54.3617 57.7975 54.1902 57.7052 54.0396C57.613 53.8889 57.4979 53.762 57.3666 53.6661C57.2353 53.5702 57.0903 53.5072 56.94 53.4807C56.7896 53.4543 56.6369 53.4649 56.4904 53.5118L52.8777 54.6669C52.5823 54.762 52.3306 54.9993 52.1777 55.3265C52.0249 55.6538 51.9835 56.0443 52.0626 56.4124L53.3691 62.4834C53.2432 62.4305 53.1111 62.4048 52.9787 62.4076L47.6344 62.5364C47.4934 62.5402 47.3544 62.5761 47.2244 62.6425L47.1182 58.2364C47.1081 57.8323 46.9694 57.4481 46.7325 57.1679C46.4956 56.8877 46.1799 56.7346 45.8546 56.742L41.0076 56.8588C40.8463 56.8625 40.6875 56.9056 40.5403 56.9857C40.3931 57.0657 40.2603 57.1812 40.1496 57.3255C40.0388 57.4697 39.9523 57.64 39.8948 57.8265C39.8374 58.013 39.8103 58.2121 39.8149 58.4124L40.4908 86.452C40.4977 86.747 40.574 87.034 40.7103 87.2776L39.9883 87.295C39.707 87.3102 39.4427 87.4615 39.252 87.7166C39.0613 87.9717 38.9593 88.3103 38.9677 88.6602C38.9762 89.01 39.0944 89.3433 39.2971 89.5889C39.4999 89.8345 39.7711 89.9729 40.0529 89.9746L75.0935 89.13C75.3749 89.1148 75.6391 88.9635 75.8298 88.7084C76.0205 88.4533 76.1226 88.1147 76.1141 87.7649C76.1057 87.415 75.9875 87.0817 75.7847 86.8361C75.5819 86.5905 75.3107 86.4521 75.029 86.4504L75.0289 86.4481ZM64.3999 84.7084L63.8071 81.9586L63.2815 79.5185L60.6362 67.2349L63.8776 75.554L65.1807 78.8985L68.1871 86.6153L62.6716 86.7482L63.5836 86.4571C63.8794 86.3616 64.1315 86.1239 64.2845 85.7961C64.4375 85.4683 64.479 85.0772 64.3999 84.7084ZM71.2302 75.8344L74.1037 83.2087C74.1516 83.3314 74.1586 83.4722 74.123 83.6002C74.0875 83.7283 74.0124 83.833 73.9142 83.8915L69.4355 86.5383C69.3369 86.5962 69.2235 86.6029 69.12 86.557C69.0165 86.5111 68.9315 86.4163 68.8835 86.2934L66.01 78.9176L66.0721 78.8793L71.2302 75.8344ZM60.1864 63.628C60.204 63.5646 60.2316 63.5063 60.2676 63.4564C60.3036 63.4065 60.3473 63.3661 60.3961 63.3374L64.8754 60.6914C64.9278 60.6606 64.9848 60.6438 65.043 60.642C65.0929 60.6407 65.1427 60.6509 65.1899 60.6721C65.2413 60.6945 65.2887 60.7294 65.3293 60.7746C65.37 60.8198 65.4031 60.8745 65.4267 60.9355L69.6034 71.6559L64.9421 74.4095L64.3832 74.7406L60.2041 64.0235C60.1801 63.9621 60.1661 63.8955 60.163 63.8276C60.16 63.7596 60.1679 63.6918 60.1864 63.628ZM60.3309 80.9361L62.6609 80.1899L62.995 81.7411L60.0392 82.6862L58.5867 83.1523L58.2533 81.6027L60.3309 80.9361ZM53.8388 56.7006L56.472 55.8586C56.5192 55.8432 56.5685 55.8395 56.6171 55.8477C56.6656 55.856 56.7125 55.8761 56.7549 55.9069C56.7974 55.9376 56.8346 55.9784 56.8645 56.0269C56.8944 56.0754 56.9164 56.1307 56.9291 56.1895L58.1346 61.7834C58.1473 61.8419 58.1505 61.9029 58.1442 61.9628C58.1378 62.0227 58.122 62.0803 58.0976 62.1323C58.0733 62.1843 58.0408 62.2298 58.0021 62.266C57.9635 62.3023 57.9193 62.3287 57.8723 62.3436L55.2391 63.1894C55.2114 63.1981 55.183 63.203 55.1544 63.204C55.0709 63.2061 54.9889 63.173 54.9219 63.1101C54.8548 63.0473 54.8067 62.9583 54.7852 62.8577L53.5796 57.2638C53.5666 57.2053 53.5629 57.1443 53.5689 57.0843C53.5749 57.0243 53.5903 56.9665 53.6144 56.9141C53.6385 56.8618 53.6707 56.816 53.7092 56.7793C53.7477 56.7427 53.7917 56.7159 53.8388 56.7006ZM47.7914 86.2737L47.254 63.9773C47.2509 63.8414 47.2913 63.7102 47.3662 63.6122C47.4412 63.5142 47.5446 63.4575 47.654 63.4544L53.0008 63.3255C53.1102 63.3231 53.2165 63.3747 53.2962 63.469C53.3759 63.5633 53.4226 63.6925 53.4261 63.8285L53.9657 86.2156C53.9688 86.3515 53.9283 86.4828 53.8532 86.5807C53.7781 86.6786 53.6745 86.7351 53.5651 86.7377L48.2208 86.8665C48.1115 86.869 48.0054 86.8175 47.9258 86.7233C47.8462 86.6292 47.7996 86.5001 47.7961 86.3643L47.7914 86.2737ZM40.6901 63.9399L46.5078 63.7997L46.5313 64.7739L40.7136 64.9142L40.6901 63.9399ZM40.7358 65.8345L46.5534 65.6943L46.6057 67.8602L40.788 68.0004L40.7358 65.8345ZM41.0706 79.7268L46.8883 79.5866L46.9117 80.5601L41.0941 80.7003L41.0706 79.7268ZM54.7053 86.1978L54.2302 66.488L57.4374 81.3845L57.963 83.8238L58.5552 86.5752C58.5747 86.6667 58.6016 86.7557 58.6353 86.8408L54.5569 86.9391C54.6608 86.7145 54.7126 86.458 54.7066 86.1978L54.7053 86.1978Z" fill="#937DC2"/>
</g>
</g>
<path id="Vector" d="M86.6871 99H26.3129C25.5775 98.996 24.8685 98.6835 24.3184 98.1209C23.7684 97.5583 23.4149 96.7841 23.3241 95.9431L18.019 40.8319C17.9718 40.3518 18.0128 39.8655 18.1394 39.4048C18.2659 38.9441 18.4752 38.5192 18.7536 38.1578C19.0319 37.7964 19.3732 37.5065 19.7551 37.3071C20.137 37.1076 20.5511 37.003 20.9704 37H92.0296C92.4489 37.003 92.863 37.1076 93.2449 37.3071C93.6268 37.5065 93.9681 37.7964 94.2464 38.1578C94.5248 38.5192 94.7341 38.9441 94.8606 39.4048C94.9872 39.8655 95.0282 40.3518 94.981 40.8319L89.6759 95.9431C89.5851 96.7841 89.2316 97.5583 88.6816 98.1209C88.1315 98.6835 87.4225 98.996 86.6871 99V99Z" stroke="#191C1F" stroke-width="2" stroke-linecap="round" stroke-linejoin="round"/>
<path id="Vector_2" d="M38 36C38 30.6957 39.8964 25.6086 43.2721 21.8579C46.6477 18.1071 51.2261 16 56 16C60.7739 16 65.3523 18.1071 68.7279 21.8579C72.1036 25.6086 74 30.6957 74 36" stroke="black" stroke-width="2" stroke-linecap="round" stroke-linejoin="round"/>
</g>
</svg>
