<svg width="1000" height="1100" viewBox="0 0 303 359" fill="none" xmlns="http://www.w3.org/2000/svg">

<g id="Component 2">
<g id="vector">
<g id="icon elements">
<path id="book rectangle shape" d="M139.16 182.735L128.807 183.014C128.26 183.028 127.828 183.609 127.844 184.311L128.855 230.784C128.87 231.486 129.326 232.043 129.873 232.028L140.226 231.75C140.773 231.735 141.205 231.154 141.19 230.452L140.178 183.979C140.163 183.277 139.707 182.72 139.16 182.735Z" fill="#937DC2"/>
<path id="book round shape" d="M166.652 187.815C167.241 189.412 168.008 190.89 168.929 192.204C169.016 192.327 169.104 192.447 169.194 192.566C169.541 193.021 169.913 193.444 170.307 193.831C170.402 193.925 170.499 194.015 170.595 194.103C171.741 195.139 172.888 195.654 173.943 195.625C174.041 195.622 174.136 195.62 174.232 195.602L174.335 195.589L174.349 195.588C174.409 195.587 174.468 195.568 174.528 195.553C174.556 195.552 174.583 195.539 174.611 195.532L174.716 195.503L174.801 195.475L174.903 195.442L174.971 195.412L175.088 195.365L175.157 195.331C175.194 195.313 175.232 195.297 175.269 195.276L175.298 195.258C175.348 195.233 175.396 195.206 175.446 195.174C175.534 195.12 175.62 195.062 175.704 195.001L175.73 194.979C175.805 194.921 175.877 194.863 175.948 194.801C176.106 194.66 176.255 194.503 176.393 194.331C176.403 194.331 176.411 194.307 176.419 194.296C176.622 194.039 176.802 193.755 176.958 193.448L176.985 193.389C177.03 193.297 177.075 193.205 177.117 193.109C177.123 193.096 177.128 193.082 177.132 193.068C177.177 192.963 177.22 192.85 177.26 192.749C177.271 192.721 177.279 192.693 177.288 192.667C177.323 192.569 177.358 192.471 177.389 192.368C177.406 192.314 177.42 192.255 177.436 192.199C177.451 192.142 177.481 192.046 177.503 191.966L177.54 191.803C177.7 191.111 177.798 190.396 177.829 189.674C177.945 187.252 177.459 184.453 176.461 181.795C174.279 175.977 170.415 172.741 167.664 174.427C166.254 175.292 165.407 177.246 165.279 179.934C165.25 180.56 165.259 181.188 165.305 181.813C165.472 183.899 165.928 185.932 166.652 187.815Z" fill="#937DC2"/>
<path id="dot" d="M200.78 173.614C200.346 173.625 199.924 173.802 199.57 174.122C199.216 174.442 198.944 174.89 198.789 175.411C198.634 175.931 198.603 176.5 198.699 177.046C198.796 177.591 199.016 178.088 199.332 178.475C199.648 178.861 200.045 179.119 200.474 179.216C200.902 179.313 201.342 179.244 201.739 179.019C202.135 178.793 202.47 178.421 202.7 177.95C202.931 177.478 203.047 176.929 203.034 176.37C203.016 175.623 202.769 174.914 202.347 174.397C201.924 173.88 201.361 173.599 200.78 173.614Z" fill="#937DC2"/>
<path id="small star" d="M191.976 180.625C191.958 180.532 191.917 180.45 191.859 180.39C191.802 180.331 191.73 180.297 191.657 180.294C191.583 180.292 191.51 180.321 191.451 180.377C191.392 180.433 191.348 180.512 191.328 180.603C191.13 181.323 190.816 181.979 190.407 182.531C189.999 183.082 189.504 183.517 188.955 183.806C188.887 183.837 188.828 183.896 188.788 183.974C188.748 184.051 188.729 184.144 188.733 184.237C188.738 184.33 188.766 184.419 188.813 184.491C188.86 184.562 188.924 184.613 188.995 184.634C189.57 184.841 190.097 185.227 190.53 185.758C190.962 186.289 191.287 186.948 191.475 187.677C191.498 187.764 191.543 187.839 191.602 187.892C191.661 187.944 191.732 187.971 191.803 187.968C191.875 187.968 191.944 187.938 192.001 187.883C192.058 187.829 192.1 187.752 192.12 187.664C192.287 186.931 192.586 186.261 192.995 185.709C193.404 185.157 193.909 184.739 194.47 184.49C194.538 184.457 194.596 184.398 194.636 184.32C194.676 184.242 194.695 184.15 194.691 184.056C194.687 183.963 194.661 183.873 194.615 183.8C194.569 183.727 194.507 183.674 194.437 183.65C193.855 183.472 193.321 183.098 192.888 182.566C192.455 182.034 192.14 181.364 191.976 180.625Z" fill="#937DC2"/>
<path id="big star" d="M187.661 165.654C189.96 166.576 191.482 168.439 192.313 171.353C192.36 171.516 192.444 171.656 192.555 171.754C192.666 171.853 192.798 171.904 192.933 171.901C193.066 171.898 193.196 171.84 193.302 171.738C193.409 171.635 193.488 171.492 193.529 171.329C194.261 168.403 195.703 166.455 197.94 165.372C198.067 165.31 198.175 165.198 198.249 165.052C198.322 164.906 198.358 164.733 198.351 164.559C198.344 164.384 198.294 164.217 198.209 164.08C198.124 163.943 198.007 163.844 197.876 163.797C195.528 162.965 194.015 161.112 193.254 158.134C193.213 157.971 193.133 157.827 193.026 157.724C192.919 157.62 192.79 157.562 192.656 157.557C192.523 157.552 192.392 157.601 192.281 157.696C192.17 157.792 192.086 157.929 192.039 158.089C191.667 159.438 191.078 160.67 190.311 161.706C189.545 162.741 188.617 163.557 187.587 164.101C187.467 164.168 187.366 164.282 187.297 164.426C187.229 164.57 187.197 164.738 187.205 164.907C187.213 165.076 187.261 165.238 187.342 165.371C187.424 165.505 187.535 165.604 187.661 165.654Z" fill="#937DC2"/>
<path id="books shape" d="M199.426 238.553L189.132 238.831L197.329 233.805C198.062 233.353 198.623 232.545 198.89 231.559C199.158 230.572 199.109 229.486 198.756 228.54L190.708 207.084L187.254 197.871L175.754 167.198C175.578 166.729 175.332 166.309 175.031 165.961C174.73 165.613 174.378 165.345 173.997 165.171C173.616 164.997 173.212 164.922 172.809 164.948C172.406 164.975 172.012 165.104 171.649 165.327L159.715 172.642C159.33 172.877 158.988 173.215 158.713 173.633L153.98 150.712C153.877 150.209 153.697 149.737 153.453 149.322C153.208 148.908 152.902 148.558 152.553 148.295C152.204 148.031 151.818 147.859 151.418 147.786C151.018 147.714 150.611 147.744 150.221 147.875L140.6 151.078C139.813 151.342 139.142 151.997 138.733 152.9C138.325 153.802 138.213 154.879 138.422 155.893L141.874 172.619C141.539 172.474 141.187 172.404 140.835 172.412L126.608 172.796C126.233 172.807 125.862 172.907 125.516 173.091L125.253 160.947C125.227 159.834 124.86 158.775 124.231 158.005C123.601 157.234 122.761 156.813 121.895 156.835L108.993 157.184C108.563 157.195 108.14 157.314 107.748 157.536C107.356 157.757 107.002 158.076 106.707 158.475C106.411 158.873 106.18 159.342 106.026 159.857C105.873 160.371 105.8 160.92 105.811 161.472L107.488 238.751C107.506 239.565 107.708 240.355 108.069 241.026L106.147 241.077C105.398 241.121 104.694 241.539 104.185 242.244C103.677 242.948 103.404 243.882 103.425 244.846C103.446 245.81 103.759 246.728 104.297 247.404C104.836 248.08 105.557 248.46 106.307 248.463L199.586 245.944C200.335 245.901 201.039 245.482 201.548 244.778C202.057 244.074 202.33 243.14 202.309 242.176C202.288 241.212 201.975 240.294 201.436 239.618C200.898 238.942 200.176 238.562 199.426 238.559L199.426 238.553ZM171.14 233.816L169.574 226.24L168.186 219.517L161.197 185.675L169.789 208.587L173.244 217.798L181.213 239.051L166.531 239.447L168.959 238.64C169.747 238.375 170.419 237.718 170.828 236.814C171.237 235.91 171.349 234.832 171.14 233.816ZM189.36 209.32L196.977 229.629C197.104 229.967 197.122 230.355 197.027 230.708C196.932 231.061 196.732 231.351 196.47 231.512L184.537 238.832C184.274 238.992 183.972 239.011 183.696 238.885C183.421 238.759 183.195 238.498 183.068 238.16L175.451 217.846L175.617 217.74L189.36 209.32ZM160.016 175.737C160.063 175.562 160.137 175.401 160.233 175.263C160.329 175.125 160.445 175.014 160.575 174.935L172.51 167.617C172.65 167.532 172.802 167.485 172.956 167.48C173.089 167.476 173.222 167.504 173.347 167.562C173.484 167.624 173.61 167.72 173.718 167.844C173.826 167.969 173.914 168.119 173.977 168.287L185.048 197.812L172.628 205.427L171.139 206.342L160.061 176.827C159.997 176.658 159.96 176.474 159.953 176.287C159.945 176.1 159.966 175.913 160.016 175.737ZM160.325 223.44L166.531 221.371L167.413 225.645L159.541 228.266L155.673 229.558L154.792 225.289L160.325 223.44ZM143.149 156.678L150.162 154.343C150.288 154.3 150.419 154.29 150.548 154.312C150.677 154.335 150.802 154.39 150.915 154.474C151.028 154.559 151.127 154.671 151.206 154.805C151.285 154.938 151.344 155.09 151.377 155.252L154.562 170.664C154.595 170.825 154.604 170.993 154.587 171.158C154.569 171.323 154.527 171.482 154.462 171.626C154.397 171.769 154.31 171.895 154.207 171.995C154.104 172.095 153.987 172.168 153.861 172.209L146.848 174.555C146.775 174.579 146.699 174.593 146.623 174.595C146.4 174.602 146.182 174.511 146.004 174.338C145.826 174.165 145.698 173.92 145.641 173.643L142.457 158.232C142.422 158.071 142.413 157.902 142.429 157.737C142.445 157.571 142.486 157.412 142.551 157.268C142.615 157.123 142.701 156.997 142.804 156.896C142.906 156.794 143.024 156.72 143.149 156.678ZM126.923 238.22L125.589 176.77C125.582 176.395 125.689 176.033 125.889 175.763C126.089 175.492 126.365 175.335 126.656 175.326L140.889 174.942C141.181 174.935 141.463 175.076 141.675 175.336C141.887 175.595 142.011 175.951 142.019 176.326L143.358 238.027C143.366 238.401 143.258 238.763 143.058 239.033C142.857 239.304 142.581 239.46 142.29 239.468L128.063 239.852C127.772 239.859 127.49 239.718 127.279 239.459C127.067 239.2 126.944 238.844 126.935 238.47L126.923 238.22ZM108.117 176.702L123.604 176.284L123.662 178.969L108.175 179.387L108.117 176.702ZM108.23 181.924L123.717 181.506L123.846 187.475L108.36 187.893L108.23 181.924ZM109.061 220.212L124.548 219.794L124.606 222.477L109.119 222.895L109.061 220.212ZM145.327 237.973L144.148 183.652L152.621 224.692L154.009 231.412L155.574 238.993C155.625 239.245 155.696 239.49 155.786 239.724L144.929 240.017C145.207 239.398 145.346 238.69 145.331 237.973L145.327 237.973Z" fill="#937DC2"/>
</g>
</g>
<path id="Vector" d="M230.405 273.392H69.937C67.9823 273.381 66.0978 272.518 64.6358 270.965C63.1738 269.411 62.2344 267.273 61.9931 264.95L47.8926 112.759C47.7671 111.433 47.8762 110.09 48.2126 108.818C48.5489 107.546 49.1051 106.372 49.845 105.374C50.5849 104.376 51.4918 103.576 52.507 103.025C53.5221 102.474 54.6227 102.185 55.7372 102.177H244.605C245.719 102.185 246.82 102.474 247.835 103.025C248.85 103.576 249.757 104.376 250.497 105.374C251.237 106.372 251.793 107.546 252.13 108.818C252.466 110.09 252.575 111.433 252.45 112.759L238.349 264.95C238.108 267.273 237.168 269.411 235.706 270.965C234.244 272.518 232.36 273.381 230.405 273.392V273.392Z" stroke="#191C1F" stroke-width="4" stroke-linecap="round" stroke-linejoin="round"/>
<path id="Vector_2" d="M102 102.231C102 87.5827 107.04 73.5345 116.013 63.1767C124.985 52.8189 137.154 47 149.842 47C162.531 47 174.699 52.8189 183.672 63.1767C192.644 73.5345 197.684 87.5827 197.684 102.231" stroke="black" stroke-width="4" stroke-linecap="round" stroke-linejoin="round"/>
</g>
</svg>
