<svg width="25" height="24" viewBox="0 0 25 24" fill="none" xmlns="http://www.w3.org/2000/svg">
<path d="M4.24659 1.19859C3.58293 1.19859 3.04492 1.73585 3.04492 2.39859C3.04492 3.06133 3.58293 3.59859 4.24659 3.59859H5.71169L6.07887 5.06528C6.08272 5.08224 6.08694 5.09906 6.0915 5.11574L7.72244 11.6304L6.64986 12.7015C5.13585 14.2134 6.20813 16.7986 8.34928 16.7986H18.6665C19.3302 16.7986 19.8682 16.2613 19.8682 15.5986C19.8682 14.9359 19.3302 14.3986 18.6665 14.3986L8.34928 14.3986L9.55094 13.1986H17.4649C17.9201 13.1986 18.3362 12.9418 18.5397 12.5352L22.1447 5.33525C22.331 4.96326 22.3111 4.5215 22.0921 4.16772C21.8732 3.81394 21.4864 3.59859 21.0699 3.59859H8.18899L7.81571 2.10755C7.68197 1.57335 7.20133 1.19859 6.64992 1.19859H4.24659Z" fill="#937DC2"/>
<path d="M19.8683 19.7986C19.8683 20.7927 19.0612 21.5986 18.0658 21.5986C17.0703 21.5986 16.2633 20.7927 16.2633 19.7986C16.2633 18.8045 17.0703 17.9986 18.0658 17.9986C19.0612 17.9986 19.8683 18.8045 19.8683 19.7986Z" fill="#937DC2"/>
<path d="M8.45242 21.5986C9.44792 21.5986 10.2549 20.7927 10.2549 19.7986C10.2549 18.8045 9.44792 17.9986 8.45242 17.9986C7.45693 17.9986 6.64992 18.8045 6.64992 19.7986C6.64992 20.7927 7.45693 21.5986 8.45242 21.5986Z" fill="#937DC2"/>
</svg>
