<svg width="21" height="20" viewBox="0 0 21 20" fill="none" xmlns="http://www.w3.org/2000/svg">
<path opacity="0.6" fill-rule="evenodd" clip-rule="evenodd" d="M8.49356 3.99939C6.28136 3.99939 4.48801 5.79025 4.48801 7.99939C4.48801 10.2085 6.28136 11.9994 8.49356 11.9994C10.7058 11.9994 12.4991 10.2085 12.4991 7.99939C12.4991 5.79025 10.7058 3.99939 8.49356 3.99939ZM2.48523 7.99939C2.48523 4.68568 5.17525 1.99939 8.49356 1.99939C11.8119 1.99939 14.5019 4.68568 14.5019 7.99939C14.5019 9.29522 14.0905 10.4951 13.3911 11.4759L18.2142 16.2923C18.6052 16.6828 18.6052 17.316 18.2142 17.7065C17.8231 18.097 17.189 18.097 16.798 17.7065L11.9749 12.8901C10.9927 13.5886 9.79119 13.9994 8.49356 13.9994C5.17525 13.9994 2.48523 11.3131 2.48523 7.99939Z" fill="#231F2D"/>
</svg>
