<svg width="551" height="359" viewBox="0 0 551 359" fill="none" xmlns="http://www.w3.org/2000/svg">
<g id="Component 2">
<g id="vector">
<g id="icon elements">
<path id="book rectangle shape" d="M139.16 182.735L128.807 183.014C128.26 183.028 127.828 183.609 127.844 184.311L128.855 230.784C128.87 231.486 129.326 232.043 129.873 232.028L140.226 231.75C140.773 231.735 141.205 231.154 141.19 230.452L140.178 183.979C140.163 183.277 139.707 182.72 139.16 182.735Z" fill="#937DC2"/>
<path id="book round shape" d="M166.652 187.815C167.241 189.412 168.008 190.89 168.929 192.204C169.016 192.327 169.104 192.447 169.194 192.566C169.541 193.021 169.913 193.444 170.307 193.831C170.402 193.925 170.499 194.015 170.595 194.103C171.741 195.139 172.888 195.654 173.943 195.625C174.041 195.622 174.136 195.62 174.232 195.602L174.335 195.589L174.349 195.588C174.409 195.587 174.468 195.568 174.528 195.553C174.556 195.552 174.583 195.539 174.611 195.532L174.716 195.503L174.801 195.475L174.903 195.442L174.971 195.412L175.088 195.365L175.157 195.331C175.194 195.313 175.232 195.297 175.269 195.276L175.298 195.258C175.348 195.233 175.396 195.206 175.446 195.174C175.534 195.12 175.62 195.062 175.704 195.001L175.73 194.979C175.805 194.921 175.877 194.863 175.948 194.801C176.106 194.66 176.255 194.503 176.393 194.331C176.403 194.331 176.411 194.307 176.419 194.296C176.622 194.039 176.802 193.755 176.958 193.448L176.985 193.389C177.03 193.297 177.075 193.205 177.117 193.109C177.123 193.096 177.128 193.082 177.132 193.068C177.177 192.963 177.22 192.85 177.26 192.749C177.271 192.721 177.279 192.693 177.288 192.667C177.323 192.569 177.358 192.471 177.389 192.368C177.406 192.314 177.42 192.255 177.436 192.199C177.451 192.142 177.481 192.046 177.503 191.966L177.54 191.803C177.7 191.111 177.798 190.396 177.829 189.674C177.945 187.252 177.459 184.453 176.461 181.795C174.279 175.977 170.415 172.741 167.664 174.427C166.254 175.292 165.407 177.246 165.279 179.934C165.25 180.56 165.259 181.188 165.305 181.813C165.472 183.899 165.928 185.932 166.652 187.815Z" fill="#937DC2"/>
<path id="dot" d="M200.78 173.614C200.346 173.625 199.924 173.802 199.57 174.122C199.216 174.442 198.944 174.89 198.789 175.411C198.634 175.931 198.603 176.5 198.699 177.046C198.796 177.591 199.016 178.088 199.332 178.475C199.648 178.861 200.045 179.119 200.474 179.216C200.902 179.313 201.342 179.244 201.739 179.019C202.135 178.793 202.47 178.421 202.7 177.95C202.931 177.478 203.047 176.929 203.034 176.37C203.016 175.623 202.769 174.914 202.347 174.397C201.924 173.88 201.361 173.599 200.78 173.614Z" fill="#937DC2"/>
<path id="small star" d="M191.976 180.625C191.958 180.532 191.917 180.45 191.859 180.39C191.802 180.331 191.73 180.297 191.657 180.294C191.583 180.292 191.51 180.321 191.451 180.377C191.392 180.433 191.348 180.512 191.328 180.603C191.13 181.323 190.816 181.979 190.407 182.531C189.999 183.082 189.504 183.517 188.955 183.806C188.887 183.837 188.828 183.896 188.788 183.974C188.748 184.051 188.729 184.144 188.733 184.237C188.738 184.33 188.766 184.419 188.813 184.491C188.86 184.562 188.924 184.613 188.995 184.634C189.57 184.841 190.097 185.227 190.53 185.758C190.962 186.289 191.287 186.948 191.475 187.677C191.498 187.764 191.543 187.839 191.602 187.892C191.661 187.944 191.732 187.971 191.803 187.968C191.875 187.968 191.944 187.938 192.001 187.883C192.058 187.829 192.1 187.752 192.12 187.664C192.287 186.931 192.586 186.261 192.995 185.709C193.404 185.157 193.909 184.739 194.47 184.49C194.538 184.457 194.596 184.398 194.636 184.32C194.676 184.242 194.695 184.15 194.691 184.056C194.687 183.963 194.661 183.873 194.615 183.8C194.569 183.727 194.507 183.674 194.437 183.65C193.855 183.472 193.321 183.098 192.888 182.566C192.455 182.034 192.14 181.364 191.976 180.625Z" fill="#937DC2"/>
<path id="big star" d="M187.661 165.654C189.96 166.576 191.482 168.439 192.313 171.353C192.36 171.516 192.444 171.656 192.555 171.754C192.666 171.853 192.798 171.904 192.933 171.901C193.066 171.898 193.196 171.84 193.302 171.738C193.409 171.635 193.488 171.492 193.529 171.329C194.261 168.403 195.703 166.455 197.94 165.372C198.067 165.31 198.175 165.198 198.249 165.052C198.322 164.906 198.358 164.733 198.351 164.559C198.344 164.384 198.294 164.217 198.209 164.08C198.124 163.943 198.007 163.844 197.876 163.797C195.528 162.965 194.015 161.112 193.254 158.134C193.213 157.971 193.133 157.827 193.026 157.724C192.919 157.62 192.79 157.562 192.656 157.557C192.523 157.552 192.392 157.601 192.281 157.696C192.17 157.792 192.086 157.929 192.039 158.089C191.667 159.438 191.078 160.67 190.311 161.706C189.545 162.741 188.617 163.557 187.587 164.101C187.467 164.168 187.366 164.282 187.297 164.426C187.229 164.57 187.197 164.738 187.205 164.907C187.213 165.076 187.261 165.238 187.342 165.371C187.424 165.505 187.535 165.604 187.661 165.654Z" fill="#937DC2"/>
<path id="books shape" d="M199.426 238.553L189.132 238.831L197.329 233.805C198.062 233.353 198.623 232.545 198.89 231.559C199.158 230.572 199.109 229.486 198.756 228.54L190.708 207.084L187.254 197.871L175.754 167.198C175.578 166.729 175.332 166.309 175.031 165.961C174.73 165.613 174.378 165.345 173.997 165.171C173.616 164.997 173.212 164.922 172.809 164.948C172.406 164.975 172.012 165.104 171.649 165.327L159.715 172.642C159.33 172.877 158.988 173.215 158.713 173.633L153.98 150.712C153.877 150.209 153.697 149.737 153.453 149.322C153.208 148.908 152.902 148.558 152.553 148.295C152.204 148.031 151.818 147.859 151.418 147.786C151.018 147.714 150.611 147.744 150.221 147.875L140.6 151.078C139.813 151.342 139.142 151.997 138.733 152.9C138.325 153.802 138.213 154.879 138.422 155.893L141.874 172.619C141.539 172.474 141.187 172.404 140.835 172.412L126.608 172.796C126.233 172.807 125.862 172.907 125.516 173.091L125.253 160.947C125.227 159.834 124.86 158.775 124.231 158.005C123.601 157.234 122.761 156.813 121.895 156.835L108.993 157.184C108.563 157.195 108.14 157.314 107.748 157.536C107.356 157.757 107.002 158.076 106.707 158.475C106.411 158.873 106.18 159.342 106.026 159.857C105.873 160.371 105.8 160.92 105.811 161.472L107.488 238.751C107.506 239.565 107.708 240.355 108.069 241.026L106.147 241.077C105.398 241.121 104.694 241.539 104.185 242.244C103.677 242.948 103.404 243.882 103.425 244.846C103.446 245.81 103.759 246.728 104.297 247.404C104.836 248.08 105.557 248.46 106.307 248.463L199.586 245.944C200.335 245.901 201.039 245.482 201.548 244.778C202.057 244.074 202.33 243.14 202.309 242.176C202.288 241.212 201.975 240.294 201.436 239.618C200.898 238.942 200.176 238.562 199.426 238.559L199.426 238.553ZM171.14 233.816L169.574 226.24L168.186 219.517L161.197 185.675L169.789 208.587L173.244 217.798L181.213 239.051L166.531 239.447L168.959 238.64C169.747 238.375 170.419 237.718 170.828 236.814C171.237 235.91 171.349 234.832 171.14 233.816ZM189.36 209.32L196.977 229.629C197.104 229.967 197.122 230.355 197.027 230.708C196.932 231.061 196.732 231.351 196.47 231.512L184.537 238.832C184.274 238.992 183.972 239.011 183.696 238.885C183.421 238.759 183.195 238.498 183.068 238.16L175.451 217.846L175.617 217.74L189.36 209.32ZM160.016 175.737C160.063 175.562 160.137 175.401 160.233 175.263C160.329 175.125 160.445 175.014 160.575 174.935L172.51 167.617C172.65 167.532 172.802 167.485 172.956 167.48C173.089 167.476 173.222 167.504 173.347 167.562C173.484 167.624 173.61 167.72 173.718 167.844C173.826 167.969 173.914 168.119 173.977 168.287L185.048 197.812L172.628 205.427L171.139 206.342L160.061 176.827C159.997 176.658 159.96 176.474 159.953 176.287C159.945 176.1 159.966 175.913 160.016 175.737ZM160.325 223.44L166.531 221.371L167.413 225.645L159.541 228.266L155.673 229.558L154.792 225.289L160.325 223.44ZM143.149 156.678L150.162 154.343C150.288 154.3 150.419 154.29 150.548 154.312C150.677 154.335 150.802 154.39 150.915 154.474C151.028 154.559 151.127 154.671 151.206 154.805C151.285 154.938 151.344 155.09 151.377 155.252L154.562 170.664C154.595 170.825 154.604 170.993 154.587 171.158C154.569 171.323 154.527 171.482 154.462 171.626C154.397 171.769 154.31 171.895 154.207 171.995C154.104 172.095 153.987 172.168 153.861 172.209L146.848 174.555C146.775 174.579 146.699 174.593 146.623 174.595C146.4 174.602 146.182 174.511 146.004 174.338C145.826 174.165 145.698 173.92 145.641 173.643L142.457 158.232C142.422 158.071 142.413 157.902 142.429 157.737C142.445 157.571 142.486 157.412 142.551 157.268C142.615 157.123 142.701 156.997 142.804 156.896C142.906 156.794 143.024 156.72 143.149 156.678ZM126.923 238.22L125.589 176.77C125.582 176.395 125.689 176.033 125.889 175.763C126.089 175.492 126.365 175.335 126.656 175.326L140.889 174.942C141.181 174.935 141.463 175.076 141.675 175.336C141.887 175.595 142.011 175.951 142.019 176.326L143.358 238.027C143.366 238.401 143.258 238.763 143.058 239.033C142.857 239.304 142.581 239.46 142.29 239.468L128.063 239.852C127.772 239.859 127.49 239.718 127.279 239.459C127.067 239.2 126.944 238.844 126.935 238.47L126.923 238.22ZM108.117 176.702L123.604 176.284L123.662 178.969L108.175 179.387L108.117 176.702ZM108.23 181.924L123.717 181.506L123.846 187.475L108.36 187.893L108.23 181.924ZM109.061 220.212L124.548 219.794L124.606 222.477L109.119 222.895L109.061 220.212ZM145.327 237.973L144.148 183.652L152.621 224.692L154.009 231.412L155.574 238.993C155.625 239.245 155.696 239.49 155.786 239.724L144.929 240.017C145.207 239.398 145.346 238.69 145.331 237.973L145.327 237.973Z" fill="#937DC2"/>
</g>
</g>
<path id="Vector" d="M230.405 273.392H69.937C67.9823 273.381 66.0978 272.518 64.6358 270.965C63.1738 269.411 62.2344 267.273 61.9931 264.95L47.8926 112.759C47.7671 111.433 47.8762 110.09 48.2126 108.818C48.5489 107.546 49.1051 106.372 49.845 105.374C50.5849 104.376 51.4918 103.576 52.507 103.025C53.5221 102.474 54.6227 102.185 55.7372 102.177H244.605C245.719 102.185 246.82 102.474 247.835 103.025C248.85 103.576 249.757 104.376 250.497 105.374C251.237 106.372 251.793 107.546 252.13 108.818C252.466 110.09 252.575 111.433 252.45 112.759L238.349 264.95C238.108 267.273 237.168 269.411 235.706 270.965C234.244 272.518 232.36 273.381 230.405 273.392V273.392Z" stroke="#191C1F" stroke-width="4" stroke-linecap="round" stroke-linejoin="round"/>
<path id="Vector_2" d="M102 102.231C102 87.5827 107.04 73.5345 116.013 63.1767C124.985 52.8189 137.154 47 149.842 47C162.531 47 174.699 52.8189 183.672 63.1767C192.644 73.5345 197.684 87.5827 197.684 102.231" stroke="black" stroke-width="4" stroke-linecap="round" stroke-linejoin="round"/>
<path id="Book BaZaar" d="M337.813 183V135H354.594C357.938 135 360.695 135.578 362.867 136.734C365.039 137.875 366.656 139.414 367.719 141.352C368.781 143.273 369.313 145.406 369.313 147.75C369.313 149.812 368.945 151.516 368.211 152.859C367.492 154.203 366.539 155.266 365.352 156.047C364.18 156.828 362.906 157.406 361.531 157.781V158.25C363 158.344 364.477 158.859 365.961 159.797C367.445 160.734 368.688 162.078 369.688 163.828C370.688 165.578 371.188 167.719 371.188 170.25C371.188 172.656 370.641 174.82 369.547 176.742C368.453 178.664 366.727 180.187 364.367 181.312C362.008 182.437 358.938 183 355.156 183H337.813ZM343.625 177.844H355.156C358.953 177.844 361.648 177.109 363.242 175.641C364.852 174.156 365.656 172.359 365.656 170.25C365.656 168.625 365.242 167.125 364.414 165.75C363.586 164.359 362.406 163.25 360.875 162.422C359.344 161.578 357.531 161.156 355.438 161.156H343.625V177.844ZM343.625 156.094H354.406C356.156 156.094 357.734 155.75 359.141 155.062C360.563 154.375 361.688 153.406 362.516 152.156C363.359 150.906 363.781 149.437 363.781 147.75C363.781 145.641 363.047 143.852 361.578 142.383C360.109 140.898 357.781 140.156 354.594 140.156H343.625V156.094ZM394.613 183.75C391.363 183.75 388.512 182.977 386.059 181.43C383.621 179.883 381.715 177.719 380.34 174.937C378.98 172.156 378.301 168.906 378.301 165.187C378.301 161.437 378.98 158.164 380.34 155.367C381.715 152.57 383.621 150.398 386.059 148.852C388.512 147.305 391.363 146.531 394.613 146.531C397.863 146.531 400.707 147.305 403.145 148.852C405.598 150.398 407.504 152.57 408.863 155.367C410.238 158.164 410.926 161.437 410.926 165.187C410.926 168.906 410.238 172.156 408.863 174.937C407.504 177.719 405.598 179.883 403.145 181.43C400.707 182.977 397.863 183.75 394.613 183.75ZM394.613 178.781C397.082 178.781 399.113 178.148 400.707 176.883C402.301 175.617 403.48 173.953 404.246 171.891C405.012 169.828 405.395 167.594 405.395 165.187C405.395 162.781 405.012 160.539 404.246 158.461C403.48 156.383 402.301 154.703 400.707 153.422C399.113 152.141 397.082 151.5 394.613 151.5C392.145 151.5 390.113 152.141 388.52 153.422C386.926 154.703 385.746 156.383 384.98 158.461C384.215 160.539 383.832 162.781 383.832 165.187C383.832 167.594 384.215 169.828 384.98 171.891C385.746 173.953 386.926 175.617 388.52 176.883C390.113 178.148 392.145 178.781 394.613 178.781ZM433.994 183.75C430.744 183.75 427.893 182.977 425.439 181.43C423.002 179.883 421.096 177.719 419.721 174.937C418.361 172.156 417.682 168.906 417.682 165.187C417.682 161.437 418.361 158.164 419.721 155.367C421.096 152.57 423.002 150.398 425.439 148.852C427.893 147.305 430.744 146.531 433.994 146.531C437.244 146.531 440.088 147.305 442.525 148.852C444.979 150.398 446.885 152.57 448.244 155.367C449.619 158.164 450.307 161.437 450.307 165.187C450.307 168.906 449.619 172.156 448.244 174.937C446.885 177.719 444.979 179.883 442.525 181.43C440.088 182.977 437.244 183.75 433.994 183.75ZM433.994 178.781C436.463 178.781 438.494 178.148 440.088 176.883C441.682 175.617 442.861 173.953 443.627 171.891C444.393 169.828 444.775 167.594 444.775 165.187C444.775 162.781 444.393 160.539 443.627 158.461C442.861 156.383 441.682 154.703 440.088 153.422C438.494 152.141 436.463 151.5 433.994 151.5C431.525 151.5 429.494 152.141 427.9 153.422C426.307 154.703 425.127 156.383 424.361 158.461C423.596 160.539 423.213 162.781 423.213 165.187C423.213 167.594 423.596 169.828 424.361 171.891C425.127 173.953 426.307 175.617 427.9 176.883C429.494 178.148 431.525 178.781 433.994 178.781ZM463.906 169.875L463.813 163.031H464.938L480.688 147H487.531L470.75 163.969H470.281L463.906 169.875ZM458.75 183V135H464.281V183H458.75ZM481.625 183L467.563 165.187L471.5 161.344L488.656 183H481.625ZM337.813 263V215H354.594C357.938 215 360.695 215.578 362.867 216.734C365.039 217.875 366.656 219.414 367.719 221.352C368.781 223.273 369.313 225.406 369.313 227.75C369.313 229.812 368.945 231.516 368.211 232.859C367.492 234.203 366.539 235.266 365.352 236.047C364.18 236.828 362.906 237.406 361.531 237.781V238.25C363 238.344 364.477 238.859 365.961 239.797C367.445 240.734 368.688 242.078 369.688 243.828C370.688 245.578 371.188 247.719 371.188 250.25C371.188 252.656 370.641 254.82 369.547 256.742C368.453 258.664 366.727 260.187 364.367 261.312C362.008 262.437 358.938 263 355.156 263H337.813ZM343.625 257.844H355.156C358.953 257.844 361.648 257.109 363.242 255.641C364.852 254.156 365.656 252.359 365.656 250.25C365.656 248.625 365.242 247.125 364.414 245.75C363.586 244.359 362.406 243.25 360.875 242.422C359.344 241.578 357.531 241.156 355.438 241.156H343.625V257.844ZM343.625 236.094H354.406C356.156 236.094 357.734 235.75 359.141 235.062C360.563 234.375 361.688 233.406 362.516 232.156C363.359 230.906 363.781 229.437 363.781 227.75C363.781 225.641 363.047 223.852 361.578 222.383C360.109 220.898 357.781 220.156 354.594 220.156H343.625V236.094ZM390.582 263.844C388.301 263.844 386.23 263.414 384.371 262.555C382.512 261.68 381.035 260.422 379.941 258.781C378.848 257.125 378.301 255.125 378.301 252.781C378.301 250.719 378.707 249.047 379.52 247.766C380.332 246.469 381.418 245.453 382.777 244.719C384.137 243.984 385.637 243.437 387.277 243.078C388.934 242.703 390.598 242.406 392.27 242.188C394.457 241.906 396.23 241.695 397.59 241.555C398.965 241.398 399.965 241.141 400.59 240.781C401.23 240.422 401.551 239.797 401.551 238.906V238.719C401.551 236.406 400.918 234.609 399.652 233.328C398.402 232.047 396.504 231.406 393.957 231.406C391.316 231.406 389.246 231.984 387.746 233.141C386.246 234.297 385.191 235.531 384.582 236.844L379.332 234.969C380.27 232.781 381.52 231.078 383.082 229.859C384.66 228.625 386.379 227.766 388.238 227.281C390.113 226.781 391.957 226.531 393.77 226.531C394.926 226.531 396.254 226.672 397.754 226.953C399.27 227.219 400.73 227.773 402.137 228.617C403.559 229.461 404.738 230.734 405.676 232.437C406.613 234.141 407.082 236.422 407.082 239.281V263H401.551V258.125H401.27C400.895 258.906 400.27 259.742 399.395 260.633C398.52 261.523 397.355 262.281 395.902 262.906C394.449 263.531 392.676 263.844 390.582 263.844ZM391.426 258.875C393.613 258.875 395.457 258.445 396.957 257.586C398.473 256.727 399.613 255.617 400.379 254.258C401.16 252.898 401.551 251.469 401.551 249.969V244.906C401.316 245.187 400.801 245.445 400.004 245.68C399.223 245.898 398.316 246.094 397.285 246.266C396.27 246.422 395.277 246.562 394.309 246.687C393.355 246.797 392.582 246.891 391.988 246.969C390.551 247.156 389.207 247.461 387.957 247.883C386.723 248.289 385.723 248.906 384.957 249.734C384.207 250.547 383.832 251.656 383.832 253.062C383.832 254.984 384.543 256.437 385.965 257.422C387.402 258.391 389.223 258.875 391.426 258.875ZM416.334 263V258.781L442.209 220.156H416.053V215H449.146V219.219L423.271 257.844H449.428V263H416.334ZM469.021 263.844C466.74 263.844 464.67 263.414 462.811 262.555C460.951 261.68 459.475 260.422 458.381 258.781C457.287 257.125 456.74 255.125 456.74 252.781C456.74 250.719 457.146 249.047 457.959 247.766C458.771 246.469 459.857 245.453 461.217 244.719C462.576 243.984 464.076 243.437 465.717 243.078C467.373 242.703 469.037 242.406 470.709 242.188C472.896 241.906 474.67 241.695 476.029 241.555C477.404 241.398 478.404 241.141 479.029 240.781C479.67 240.422 479.99 239.797 479.99 238.906V238.719C479.99 236.406 479.357 234.609 478.092 233.328C476.842 232.047 474.943 231.406 472.396 231.406C469.756 231.406 467.686 231.984 466.186 233.141C464.686 234.297 463.631 235.531 463.021 236.844L457.771 234.969C458.709 232.781 459.959 231.078 461.521 229.859C463.1 228.625 464.818 227.766 466.678 227.281C468.553 226.781 470.396 226.531 472.209 226.531C473.365 226.531 474.693 226.672 476.193 226.953C477.709 227.219 479.17 227.773 480.576 228.617C481.998 229.461 483.178 230.734 484.115 232.437C485.053 234.141 485.521 236.422 485.521 239.281V263H479.99V258.125H479.709C479.334 258.906 478.709 259.742 477.834 260.633C476.959 261.523 475.795 262.281 474.342 262.906C472.889 263.531 471.115 263.844 469.021 263.844ZM469.865 258.875C472.053 258.875 473.896 258.445 475.396 257.586C476.912 256.727 478.053 255.617 478.818 254.258C479.6 252.898 479.99 251.469 479.99 249.969V244.906C479.756 245.187 479.24 245.445 478.443 245.68C477.662 245.898 476.756 246.094 475.725 246.266C474.709 246.422 473.717 246.562 472.748 246.687C471.795 246.797 471.021 246.891 470.428 246.969C468.99 247.156 467.646 247.461 466.396 247.883C465.162 248.289 464.162 248.906 463.396 249.734C462.646 250.547 462.271 251.656 462.271 253.062C462.271 254.984 462.982 256.437 464.404 257.422C465.842 258.391 467.662 258.875 469.865 258.875ZM506.211 263.844C503.93 263.844 501.859 263.414 500 262.555C498.141 261.68 496.664 260.422 495.57 258.781C494.477 257.125 493.93 255.125 493.93 252.781C493.93 250.719 494.336 249.047 495.148 247.766C495.961 246.469 497.047 245.453 498.406 244.719C499.766 243.984 501.266 243.437 502.906 243.078C504.563 242.703 506.227 242.406 507.898 242.188C510.086 241.906 511.859 241.695 513.219 241.555C514.594 241.398 515.594 241.141 516.219 240.781C516.859 240.422 517.18 239.797 517.18 238.906V238.719C517.18 236.406 516.547 234.609 515.281 233.328C514.031 232.047 512.133 231.406 509.586 231.406C506.945 231.406 504.875 231.984 503.375 233.141C501.875 234.297 500.82 235.531 500.211 236.844L494.961 234.969C495.898 232.781 497.148 231.078 498.711 229.859C500.289 228.625 502.008 227.766 503.867 227.281C505.742 226.781 507.586 226.531 509.398 226.531C510.555 226.531 511.883 226.672 513.383 226.953C514.898 227.219 516.359 227.773 517.766 228.617C519.188 229.461 520.367 230.734 521.305 232.437C522.242 234.141 522.711 236.422 522.711 239.281V263H517.18V258.125H516.898C516.523 258.906 515.898 259.742 515.023 260.633C514.148 261.523 512.984 262.281 511.531 262.906C510.078 263.531 508.305 263.844 506.211 263.844ZM507.055 258.875C509.242 258.875 511.086 258.445 512.586 257.586C514.102 256.727 515.242 255.617 516.008 254.258C516.789 252.898 517.18 251.469 517.18 249.969V244.906C516.945 245.187 516.43 245.445 515.633 245.68C514.852 245.898 513.945 246.094 512.914 246.266C511.898 246.422 510.906 246.562 509.938 246.687C508.984 246.797 508.211 246.891 507.617 246.969C506.18 247.156 504.836 247.461 503.586 247.883C502.352 248.289 501.352 248.906 500.586 249.734C499.836 250.547 499.461 251.656 499.461 253.062C499.461 254.984 500.172 256.437 501.594 257.422C503.031 258.391 504.852 258.875 507.055 258.875ZM532.807 263V227H538.15V232.437H538.525C539.182 230.656 540.369 229.211 542.088 228.102C543.807 226.992 545.744 226.437 547.9 226.437C548.307 226.437 548.814 226.445 549.424 226.461C550.033 226.477 550.494 226.5 550.807 226.531V232.156C550.619 232.109 550.189 232.039 549.518 231.945C548.861 231.836 548.166 231.781 547.432 231.781C545.682 231.781 544.119 232.148 542.744 232.883C541.385 233.602 540.307 234.602 539.51 235.883C538.729 237.148 538.338 238.594 538.338 240.219V263H532.807Z" fill="#191C1F"/>
<line id="Line 1" x1="296.684" y1="272.392" x2="296.684" y2="100.415" stroke="#937DC2" stroke-width="2" stroke-linecap="round"/>
</g>
</svg>
